<?xml version="1.0" standalone="no"?><svg width="5cm" height="5cm"  version="1.1" fill="transparent"  xmlns="http://www.w3.org/2000/svg"> <desc>Randomized maze</desc><rect x="1cm" y="1cm"  height="3cm" width="3cm"  fill="transparent"  stroke="black"  stroke-width="6" /><text x="0.500000cm" y="1.500000cm"  fill="black"  text-anchor="middle"  alignment-baseline="middle">1</text><text x="0.500000cm" y="2.500000cm"  fill="black"  text-anchor="middle"  alignment-baseline="middle">2</text><text x="0.500000cm" y="3.500000cm"  fill="black"  text-anchor="middle"  alignment-baseline="middle">3</text><text x="1.500000cm" y="0.500000cm"  fill="black"  text-anchor="middle"  alignment-baseline="middle">1</text><text x="2.500000cm" y="0.500000cm"  fill="black"  text-anchor="middle"  alignment-baseline="middle">2</text><text x="3.500000cm" y="0.500000cm"  fill="black"  text-anchor="middle"  alignment-baseline="middle">3</text><line x1="2.000000cm" y1="1.000000cm"  x2="2.000000cm" y2="2.000000cm"  stroke="#DCDCDC"  stroke-width="2"  stroke-dasharray="2,2,2 "/><line x1="1.000000cm" y1="2.000000cm"  x2="2.000000cm" y2="2.000000cm"  stroke="#DCDCDC"  stroke-width="2"  stroke-dasharray="2,2,2 "/><line x1="3.000000cm" y1="1.000000cm"  x2="3.000000cm" y2="2.000000cm"  stroke="#DCDCDC"  stroke-width="2"  stroke-dasharray="2,2,2 "/><line x1="2.000000cm" y1="2.000000cm"  x2="3.000000cm" y2="2.000000cm"  stroke="#DCDCDC"  stroke-width="2"  stroke-dasharray="2,2,2 "/><line x1="3.000000cm" y1="2.000000cm"  x2="4.000000cm" y2="2.000000cm"  stroke="#DCDCDC"  stroke-width="2"  stroke-dasharray="2,2,2 "/><line x1="2.000000cm" y1="2.000000cm"  x2="2.000000cm" y2="3.000000cm"  stroke="#DCDCDC"  stroke-width="2"  stroke-dasharray="2,2,2 "/><line x1="1.000000cm" y1="3.000000cm"  x2="2.000000cm" y2="3.000000cm"  stroke="#DCDCDC"  stroke-width="2"  stroke-dasharray="2,2,2 "/><line x1="3.000000cm" y1="2.000000cm"  x2="3.000000cm" y2="3.000000cm"  stroke="#DCDCDC"  stroke-width="2"  stroke-dasharray="2,2,2 "/><line x1="2.000000cm" y1="3.000000cm"  x2="3.000000cm" y2="3.000000cm"  stroke="#DCDCDC"  stroke-width="2"  stroke-dasharray="2,2,2 "/><line x1="3.000000cm" y1="3.000000cm"  x2="4.000000cm" y2="3.000000cm"  stroke="#DCDCDC"  stroke-width="2"  stroke-dasharray="2,2,2 "/><line x1="2.000000cm" y1="3.000000cm"  x2="2.000000cm" y2="4.000000cm"  stroke="#DCDCDC"  stroke-width="2"  stroke-dasharray="2,2,2 "/><line x1="3.000000cm" y1="3.000000cm"  x2="3.000000cm" y2="4.000000cm"  stroke="#DCDCDC"  stroke-width="2"  stroke-dasharray="2,2,2 "/></svg>
